<svg width="22" height="22" viewBox="0 0 22 22" fill="none" xmlns="http://www.w3.org/2000/svg">
<g id="mdi:twitter">
<path id="Vector" d="M20.5883 5.50008C19.8825 5.82091 19.1216 6.03175 18.3333 6.13258C19.14 5.64675 19.7633 4.87675 20.0566 3.95091C19.2958 4.40925 18.4525 4.73008 17.5633 4.91341C16.8391 4.12508 15.8216 3.66675 14.6666 3.66675C12.5125 3.66675 10.7525 5.42675 10.7525 7.59925C10.7525 7.91091 10.7891 8.21342 10.8533 8.49758C7.58995 8.33258 4.68412 6.76508 2.74995 4.39091C2.41079 4.96841 2.21829 5.64675 2.21829 6.36175C2.21829 7.72758 2.90579 8.93758 3.96912 9.62508C3.31829 9.62508 2.71329 9.44175 2.18162 9.16675V9.19425C2.18162 11.1009 3.53829 12.6959 5.33495 13.0534C4.75812 13.2113 4.15254 13.2332 3.56579 13.1176C3.81476 13.899 4.30236 14.5828 4.96005 15.0728C5.61774 15.5627 6.41245 15.8343 7.23245 15.8492C5.84245 16.9497 4.11945 17.5445 2.34662 17.5359C2.03495 17.5359 1.72329 17.5176 1.41162 17.4809C3.15329 18.5992 5.22495 19.2501 7.44329 19.2501C14.6666 19.2501 18.6358 13.2551 18.6358 8.05758C18.6358 7.88341 18.6358 7.71841 18.6266 7.54425C19.3966 6.99425 20.0566 6.29758 20.5883 5.50008Z" fill="#00AAFF"/>
</g>
</svg>
