<svg width="22" height="22" viewBox="0 0 22 22" fill="none" xmlns="http://www.w3.org/2000/svg">
<g id="ri:linkedin-fill">
<path id="Vector" d="M6.36161 4.58327C6.36137 5.0695 6.16798 5.53572 5.82399 5.87937C5.48001 6.22301 5.01359 6.41593 4.52736 6.41569C4.04113 6.41545 3.57491 6.22206 3.23127 5.87807C2.88762 5.53408 2.6947 5.06767 2.69495 4.58144C2.69519 4.09521 2.88858 3.62899 3.23257 3.28535C3.57655 2.9417 4.04297 2.74878 4.5292 2.74902C5.01543 2.74927 5.48165 2.94265 5.82529 3.28664C6.16894 3.63063 6.36186 4.09704 6.36161 4.58327ZM6.41661 7.77327H2.74995V19.2499H6.41661V7.77327ZM12.2099 7.77327H8.56161V19.2499H12.1733V13.2274C12.1733 9.87244 16.5458 9.56077 16.5458 13.2274V19.2499H20.1666V11.9808C20.1666 6.32494 13.6949 6.53577 12.1733 9.31327L12.2099 7.77327Z" fill="#00AAFF"/>
</g>
</svg>
