<svg width="441" height="248" viewBox="0 0 441 248" fill="none" xmlns="http://www.w3.org/2000/svg">
<g clip-path="url(#clip0_1_334)">
<path d="M33.1793 247.876L32.7152 247.019C38.938 243.66 46.6827 239.479 50.7278 232.617C54.7154 225.853 54.8049 216.669 50.9613 208.647C47.6904 201.82 41.6818 195.704 33.5854 190.959C31.9883 190.023 30.3119 189.137 28.6906 188.279C24.7718 186.205 20.7195 184.061 17.3782 181.02C12.7761 176.83 9.2941 169.8 11.8894 163.537C12.7429 161.539 14.1407 159.819 15.9242 158.573C17.7076 157.327 19.8051 156.606 21.9787 156.49L22.0337 157.463C20.0425 157.569 18.1208 158.229 16.4866 159.37C14.8524 160.51 13.5712 162.085 12.7884 163.916C10.3767 169.736 13.6855 176.339 18.0357 180.3C21.2857 183.258 25.2825 185.373 29.1476 187.418C30.7781 188.281 32.4642 189.173 34.0795 190.119C42.3444 194.963 48.4865 201.224 51.8416 208.227C55.8234 216.537 55.7189 226.072 51.5688 233.111C47.3859 240.206 39.5087 244.459 33.1793 247.876Z" fill="#F1F1F1"/>
<path d="M28.1636 161.625C32.8795 161.625 36.7025 159.771 36.7025 157.485C36.7025 155.198 32.8795 153.344 28.1636 153.344C23.4477 153.344 19.6248 155.198 19.6248 157.485C19.6248 159.771 23.4477 161.625 28.1636 161.625Z" fill="#F1F1F1"/>
<path d="M34.9948 188.902C39.7106 188.902 43.5336 187.048 43.5336 184.762C43.5336 182.475 39.7106 180.622 34.9948 180.622C30.2789 180.622 26.4559 182.475 26.4559 184.762C26.4559 187.048 30.2789 188.902 34.9948 188.902Z" fill="#F1F1F1"/>
<path d="M19.3808 193.286C24.0967 193.286 27.9197 191.432 27.9197 189.146C27.9197 186.859 24.0967 185.005 19.3808 185.005C14.6649 185.005 10.8419 186.859 10.8419 189.146C10.8419 191.432 14.6649 193.286 19.3808 193.286Z" fill="#F1F1F1"/>
<path d="M43.7776 216.179C48.4935 216.179 52.3165 214.326 52.3165 212.039C52.3165 209.752 48.4935 207.899 43.7776 207.899C39.0617 207.899 35.2387 209.752 35.2387 212.039C35.2387 214.326 39.0617 216.179 43.7776 216.179Z" fill="#F1F1F1"/>
<path d="M60.8553 216.179C65.5712 216.179 69.3942 214.326 69.3942 212.039C69.3942 209.752 65.5712 207.899 60.8553 207.899C56.1395 207.899 52.3165 209.752 52.3165 212.039C52.3165 214.326 56.1395 216.179 60.8553 216.179Z" fill="#F1F1F1"/>
<path d="M441 7.5155H166.392V137.596H441V7.5155Z" fill="#E6E6E6"/>
<path d="M433.148 18.6702H174.244V127.201H433.148V18.6702Z" fill="white"/>
<path d="M440.883 0H166.275V11.646H440.883V0Z" fill="#1D1D1D"/>
<path d="M174.944 7.54535C176.138 7.54535 177.106 6.57894 177.106 5.38681C177.106 4.19468 176.138 3.22827 174.944 3.22827C173.75 3.22827 172.782 4.19468 172.782 5.38681C172.782 6.57894 173.75 7.54535 174.944 7.54535Z" fill="white"/>
<path d="M183.151 7.54535C184.345 7.54535 185.314 6.57894 185.314 5.38681C185.314 4.19468 184.345 3.22827 183.151 3.22827C181.957 3.22827 180.989 4.19468 180.989 5.38681C180.989 6.57894 181.957 7.54535 183.151 7.54535Z" fill="white"/>
<path d="M191.359 7.54535C192.553 7.54535 193.521 6.57894 193.521 5.38681C193.521 4.19468 192.553 3.22827 191.359 3.22827C190.165 3.22827 189.197 4.19468 189.197 5.38681C189.197 6.57894 190.165 7.54535 191.359 7.54535Z" fill="white"/>
<path d="M290.045 44.4265C289.767 44.4265 289.501 44.5367 289.304 44.7328C289.108 44.9289 288.997 45.1949 288.997 45.4722C288.997 45.7496 289.108 46.0156 289.304 46.2117C289.501 46.4078 289.767 46.518 290.045 46.518H347.526C347.804 46.518 348.07 46.4078 348.266 46.2117C348.463 46.0156 348.573 45.7496 348.573 45.4722C348.573 45.1949 348.463 44.9289 348.266 44.7328C348.07 44.5367 347.804 44.4265 347.526 44.4265H290.045Z" fill="#E6E6E6"/>
<path d="M290.045 50.7014C289.768 50.702 289.502 50.8124 289.306 51.0085C289.11 51.2045 289 51.4702 289 51.7471C289 52.0241 289.11 52.2897 289.306 52.4858C289.502 52.6818 289.768 52.7923 290.045 52.7929H319.39C319.668 52.7923 319.933 52.6818 320.129 52.4858C320.325 52.2897 320.435 52.0241 320.435 51.7471C320.435 51.4702 320.325 51.2045 320.129 51.0085C319.933 50.8124 319.668 50.702 319.39 50.7014H290.045Z" fill="#E6E6E6"/>
<path d="M288.599 81.0732C288.321 81.0732 288.054 81.1834 287.858 81.3795C287.661 81.5756 287.551 81.8416 287.551 82.119C287.551 82.3963 287.661 82.6623 287.858 82.8584C288.054 83.0545 288.321 83.1647 288.599 83.1647H396.375C396.653 83.1647 396.92 83.0545 397.116 82.8584C397.312 82.6623 397.423 82.3963 397.423 82.119C397.423 81.8416 397.312 81.5756 397.116 81.3795C396.92 81.1834 396.653 81.0732 396.375 81.0732H288.599Z" fill="#E6E6E6"/>
<path d="M288.599 87.3481C288.321 87.3487 288.055 87.4592 287.859 87.6552C287.663 87.8513 287.553 88.1169 287.553 88.3939C287.553 88.6708 287.663 88.9365 287.859 89.1325C288.055 89.3286 288.321 89.439 288.599 89.4396H368.24C368.517 89.439 368.783 89.3286 368.979 89.1325C369.175 88.9365 369.285 88.6708 369.285 88.3939C369.285 88.1169 369.175 87.8513 368.979 87.6552C368.783 87.4592 368.517 87.3487 368.24 87.3481H288.599Z" fill="#E6E6E6"/>
<path d="M288.599 93.4812C288.321 93.4818 288.055 93.5922 287.859 93.7883C287.663 93.9843 287.553 94.25 287.553 94.5269C287.553 94.8039 287.663 95.0695 287.859 95.2656C288.055 95.4616 288.321 95.5721 288.599 95.5727H396.375C396.653 95.5721 396.919 95.4616 397.115 95.2656C397.31 95.0695 397.421 94.8039 397.421 94.5269C397.421 94.25 397.31 93.9843 397.115 93.7883C396.919 93.5922 396.653 93.4818 396.375 93.4812H288.599Z" fill="#E6E6E6"/>
<path d="M288.599 99.7561C288.321 99.7567 288.055 99.8671 287.859 100.063C287.663 100.259 287.553 100.525 287.553 100.802C287.553 101.079 287.663 101.344 287.859 101.54C288.055 101.737 288.321 101.847 288.599 101.848H368.24C368.517 101.847 368.783 101.737 368.979 101.54C369.175 101.344 369.285 101.079 369.285 100.802C369.285 100.525 369.175 100.259 368.979 100.063C368.783 99.8671 368.517 99.7567 368.24 99.7561H288.599Z" fill="#E6E6E6"/>
<path d="M232.252 85.3172C237.29 85.3172 241.374 81.2404 241.374 76.2114C241.374 71.1824 237.29 67.1056 232.252 67.1056C227.214 67.1056 223.13 71.1824 223.13 76.2114C223.13 81.2404 227.214 85.3172 232.252 85.3172Z" fill="#A0616A"/>
<path d="M229.364 68.9267C229.364 68.9267 233.62 70.0649 235.825 70.5202C238.029 70.9755 237.801 69.6855 237.801 69.6855C237.801 69.6855 240.69 70.0649 240.538 69.7614C240.385 69.4579 241.754 67.8644 240.157 66.0432C238.561 64.222 239.017 62.8562 239.017 62.8562H237.649L237.269 62.325H235.141C235.141 62.325 232.787 60.2651 228.607 60.8722C224.426 61.4792 219.482 63.0838 219.026 65.5879C218.964 65.9276 218.882 66.3049 218.788 66.7035C217.645 71.5215 220.074 76.0295 222.593 80.2946C223.212 81.3427 226.207 83.6284 226.13 82.0602C226.054 80.492 223.435 76.9702 225.259 76.7425C227.083 76.5149 230.2 71.8861 229.364 68.9267Z" fill="#2F2E41"/>
<path d="M227.078 105.649C225.317 105.508 223.57 105.222 221.857 104.793L221.953 102.977L222.752 88.5384L222.759 88.4276H238.827L241.349 101.722L241.689 103.516C241.023 103.774 240.35 104.018 239.663 104.232C239.655 104.232 239.655 104.239 239.648 104.239C238.694 104.534 237.725 104.793 236.749 105.007C235.451 105.286 234.138 105.488 232.815 105.612C231.793 105.713 230.767 105.762 229.74 105.76C228.852 105.76 227.957 105.723 227.078 105.649Z" fill="#1D1D1D"/>
<path d="M216.747 103.08C216.082 102.792 215.439 102.482 214.803 102.157L214.529 102.017C214.344 101.921 214.152 101.818 213.967 101.714C213.716 101.574 213.472 101.434 213.235 101.294C213.006 101.161 212.769 101.021 212.54 100.88C212.525 100.873 212.518 100.866 212.503 100.866C211.705 100.356 210.921 99.8321 210.167 99.2637C210.041 99.1678 209.915 99.0718 209.789 98.9759L209.656 96.85L209.848 96.7318L222.752 88.5383L222.929 88.4275L222.944 88.4202L224.763 88.4275V95.1891C225.791 96.6728 226.486 99.7804 226.915 103.848C226.974 104.431 227.026 105.029 227.078 105.649C225.317 105.508 223.571 105.222 221.857 104.793C221.672 104.756 221.495 104.711 221.31 104.66C220.232 104.378 219.171 104.038 218.13 103.641C217.812 103.523 217.502 103.397 217.191 103.272L217.162 103.257C217.028 103.198 216.881 103.139 216.747 103.08Z" fill="#2F2E41"/>
<path d="M213.967 101.715C213.716 101.574 213.472 101.434 213.235 101.294C213.006 101.161 212.769 101.021 212.54 100.88C212.525 100.873 212.518 100.866 212.503 100.866C211.705 100.356 210.921 99.8322 210.167 99.2639C210.041 99.1679 209.915 99.0719 209.789 98.976C209.73 98.9243 209.671 98.88 209.604 98.8284C209.131 98.4667 208.673 98.0902 208.229 97.6916C208.207 97.6768 208.192 97.6547 208.17 97.6399C208.618 97.296 209.12 97.0291 209.656 96.8501L210.181 97.0051L213.923 98.1271L213.945 99.6403L213.967 101.715Z" fill="#2F2E41"/>
<path d="M245.475 101.737C245.253 101.855 245.031 101.973 244.809 102.084C244.757 102.113 244.713 102.135 244.669 102.157C244.373 102.305 244.085 102.453 243.789 102.593C243.781 102.6 243.767 102.6 243.767 102.608C243.752 102.615 243.73 102.622 243.715 102.63C243.05 102.947 242.377 103.242 241.689 103.516C241.023 103.774 240.35 104.018 239.663 104.232C239.655 104.232 239.655 104.239 239.648 104.239C238.694 104.534 237.725 104.793 236.749 105.007C236.738 104.4 236.818 103.796 236.986 103.213L236.993 103.11L237.629 92.8344L236.779 88.4276L239.219 88.0659L252.64 95.2778C252.64 95.2778 251.161 96.7541 245.09 99.8986C244.553 100.177 245.342 101.102 245.475 101.737Z" fill="#2F2E41"/>
<path d="M232.653 103.84C231.691 103.929 230.716 103.973 229.74 103.973C228.793 103.973 227.854 103.936 226.915 103.848C226.974 104.431 227.026 105.029 227.078 105.649C227.957 105.723 228.852 105.76 229.74 105.76C230.767 105.762 231.793 105.713 232.815 105.612C234.138 105.488 235.451 105.286 236.749 105.007C236.738 104.4 236.818 103.796 236.986 103.213L236.993 103.11C235.566 103.456 234.115 103.701 232.653 103.84ZM260.596 62.4149C259.034 57.9342 256.511 53.8476 253.204 50.4402C249.896 47.0328 245.885 44.3866 241.448 42.686C237.011 40.9854 232.256 40.2714 227.514 40.5938C222.772 40.9163 218.158 42.2673 213.993 44.5528C209.828 46.8382 206.213 50.0031 203.399 53.8267C200.585 57.6503 198.641 62.0406 197.701 66.6914C196.762 71.3422 196.85 76.1417 197.96 80.755C199.069 85.3684 201.173 89.6847 204.125 93.4028C204.421 93.7719 204.724 94.141 205.035 94.4953C205.064 94.5248 205.079 94.547 205.101 94.5691C205.865 95.448 206.677 96.2834 207.534 97.0714C207.741 97.2634 207.955 97.4553 208.17 97.6398C208.192 97.6546 208.207 97.6767 208.229 97.6915C208.673 98.0901 209.131 98.4666 209.604 98.8283C209.671 98.8799 209.73 98.9242 209.789 98.9759C209.915 99.0719 210.041 99.1678 210.166 99.2638C210.921 99.8321 211.705 100.356 212.503 100.866C212.518 100.866 212.525 100.873 212.54 100.88C212.769 101.021 213.006 101.161 213.235 101.294C213.472 101.434 213.716 101.574 213.967 101.714C214.152 101.818 214.344 101.921 214.529 102.017L214.803 102.157C215.439 102.482 216.082 102.792 216.747 103.08C216.881 103.139 217.028 103.198 217.162 103.257L217.191 103.272C217.502 103.397 217.812 103.523 218.13 103.641C219.171 104.038 220.232 104.378 221.31 104.66C221.495 104.711 221.672 104.756 221.857 104.793C223.57 105.222 225.317 105.508 227.078 105.649C227.957 105.723 228.852 105.76 229.74 105.76C230.767 105.762 231.793 105.713 232.815 105.612C234.138 105.488 235.451 105.286 236.749 105.007C237.725 104.793 238.694 104.534 239.648 104.239C239.655 104.239 239.655 104.232 239.663 104.232C240.35 104.018 241.023 103.774 241.689 103.516C242.376 103.242 243.049 102.947 243.715 102.63C243.73 102.622 243.752 102.615 243.767 102.608C243.767 102.6 243.781 102.6 243.789 102.593C244.085 102.453 244.373 102.305 244.669 102.157C244.713 102.135 244.757 102.113 244.809 102.084C245.031 101.973 245.253 101.855 245.475 101.737C245.489 101.729 245.497 101.722 245.512 101.714C246.096 101.39 246.673 101.05 247.242 100.688C247.397 100.592 247.553 100.497 247.708 100.386C247.937 100.246 248.159 100.091 248.373 99.9355C248.662 99.7362 248.95 99.5295 249.231 99.3154C249.325 99.2556 249.413 99.189 249.497 99.1162C250.185 98.5995 250.85 98.0532 251.486 97.4774C256.309 93.188 259.748 87.5671 261.37 81.3258C262.991 75.0845 262.722 68.5034 260.596 62.4149ZM250.932 95.573C250.131 96.3248 249.292 97.0344 248.418 97.6989C248.226 97.8465 248.026 97.9941 247.826 98.127C247.634 98.2747 247.442 98.4149 247.242 98.5478C247.072 98.6659 246.902 98.784 246.724 98.8947C246.71 98.9095 246.688 98.9168 246.673 98.9316C246.547 99.0202 246.414 99.1014 246.288 99.1826C245.896 99.4262 245.49 99.6698 245.09 99.8986C244.994 99.9503 244.905 100.009 244.809 100.061C244.757 100.091 244.706 100.12 244.646 100.15C244.425 100.275 244.203 100.386 243.981 100.504C243.951 100.526 243.915 100.533 243.885 100.556C243.874 100.557 243.864 100.562 243.855 100.57C243.7 100.652 243.545 100.725 243.39 100.799C243.256 100.866 243.131 100.932 242.998 100.991C242.458 101.249 241.903 101.493 241.349 101.722C240.764 101.958 240.173 102.172 239.574 102.371C239.426 102.423 239.271 102.482 239.115 102.526C238.413 102.748 237.711 102.947 236.993 103.11C235.566 103.456 234.115 103.701 232.653 103.84C231.691 103.929 230.716 103.973 229.74 103.973C228.793 103.973 227.854 103.936 226.915 103.848C225.24 103.695 223.58 103.403 221.953 102.977C221.894 102.962 221.828 102.947 221.768 102.932C220.434 102.585 219.126 102.141 217.857 101.604C217.79 101.574 217.716 101.552 217.657 101.523C217.583 101.493 217.517 101.471 217.457 101.441C217.383 101.412 217.317 101.382 217.25 101.353C216.696 101.109 216.156 100.843 215.616 100.57L215.365 100.437C214.884 100.186 214.411 99.9281 213.945 99.6402C213.782 99.5516 213.612 99.4483 213.45 99.345C213.265 99.2342 213.08 99.1161 212.902 98.998C212.858 98.9685 212.814 98.939 212.769 98.9094C212.355 98.6289 211.934 98.3484 211.535 98.0458C211.254 97.8391 210.98 97.6398 210.706 97.4257C210.529 97.2929 210.351 97.1526 210.181 97.005C210.071 96.9238 209.96 96.8279 209.848 96.7319C209.701 96.6064 209.553 96.4809 209.405 96.348C209.176 96.1635 208.961 95.9568 208.754 95.7649C207.921 94.9989 207.134 94.1856 206.395 93.3289C206.144 93.0485 205.907 92.768 205.678 92.4727C205.625 92.4146 205.575 92.3529 205.53 92.2882C201.808 87.5969 199.533 81.9254 198.984 75.9657C198.436 70.006 199.636 64.0157 202.44 58.7255C205.243 53.4354 209.528 49.0741 214.773 46.1738C220.017 43.2734 225.993 41.9594 231.973 42.392C237.952 42.8247 243.676 44.9852 248.447 48.6101C253.217 52.235 256.828 57.1675 258.838 62.806C260.848 68.4444 261.171 74.5449 259.767 80.3634C258.363 86.1818 255.293 91.4666 250.932 95.573Z" fill="#3F3D56"/>
<path d="M79.7463 241.937L85.7284 241.937L88.5741 218.903L79.7454 218.904L79.7463 241.937Z" fill="#A0616A"/>
<path d="M78.2206 239.987L90.0013 239.987H90.0018C91.9929 239.987 93.9024 240.777 95.3103 242.182C96.7183 243.587 97.5093 245.494 97.5094 247.481V247.725L78.2209 247.726L78.2206 239.987Z" fill="#2F2E41"/>
<path d="M102.191 241.937L108.173 241.937L111.019 218.903L102.19 218.904L102.191 241.937Z" fill="#A0616A"/>
<path d="M100.666 239.987L112.446 239.987H112.447C114.438 239.987 116.347 240.777 117.755 242.182C119.163 243.587 119.954 245.494 119.954 247.481V247.725L100.666 247.726L100.666 239.987Z" fill="#2F2E41"/>
<path d="M61.5953 150.92C62.0849 150.397 62.4536 149.773 62.6754 149.092C62.8973 148.411 62.9668 147.69 62.8792 146.979C62.7916 146.268 62.5489 145.585 62.1684 144.978C61.7878 144.371 61.2785 143.855 60.6764 143.466L64.8327 126.562L56.2976 129.598L53.6592 145.185C53.0712 146.238 52.8906 147.47 53.1516 148.647C53.4126 149.824 54.0971 150.864 55.0753 151.571C56.0536 152.278 57.2576 152.603 58.4593 152.483C59.661 152.363 60.7768 151.807 61.5953 150.92Z" fill="#9E616A"/>
<path d="M125.096 149.459C124.606 148.936 124.238 148.312 124.016 147.631C123.794 146.95 123.724 146.228 123.812 145.518C123.9 144.807 124.142 144.124 124.523 143.517C124.903 142.91 125.413 142.394 126.015 142.005L121.859 125.1L130.394 128.136L133.032 143.723C133.62 144.777 133.801 146.008 133.54 147.185C133.279 148.363 132.594 149.403 131.616 150.11C130.638 150.817 129.434 151.141 128.232 151.021C127.03 150.901 125.914 150.345 125.096 149.459Z" fill="#9E616A"/>
<path d="M69.4659 139.071L77.7574 236.034L89.8895 234.929L94.7449 159.99L99.0671 189.663L99.9327 236.797L110.911 236.066L117.007 185.36L115.512 136.253L73.8339 132.04L69.4659 139.071Z" fill="#2F2E41"/>
<path d="M92.2747 50.8368C99.2234 50.8368 104.856 45.2135 104.856 38.2768C104.856 31.3401 99.2234 25.7168 92.2747 25.7168C85.3259 25.7168 79.6929 31.3401 79.6929 38.2768C79.6929 45.2135 85.3259 50.8368 92.2747 50.8368Z" fill="#A0616A"/>
<path d="M88.2904 28.2288C88.2904 28.2288 94.1619 29.7988 97.2025 30.4268C100.243 31.0548 99.9286 29.2754 99.9286 29.2754C99.9286 29.2754 103.913 29.7988 103.703 29.3801C103.493 28.9614 105.381 26.7634 103.179 24.2514C100.977 21.7394 101.606 19.8554 101.606 19.8554H99.7189L99.1946 19.1228H96.2588C96.2588 19.1228 93.0131 16.2816 87.2464 17.1189C81.4798 17.9562 74.6601 20.1694 74.031 23.6234C73.9457 24.0919 73.8333 24.6124 73.7029 25.1622C72.126 31.8079 75.4765 38.0259 78.9515 43.9089C79.8055 45.3547 83.9365 48.5074 83.8309 46.3443C83.7252 44.1813 80.1122 39.3234 82.6286 39.0094C85.1449 38.6954 89.4437 32.3108 88.2904 28.2288Z" fill="#2F2E41"/>
<path d="M79.182 55.1272H101.34L117.007 137.726C117.007 137.726 103.348 138.892 95.5413 141.814C87.7343 144.737 74.756 135.138 74.756 135.138L79.182 55.1272Z" fill="#1D1D1D"/>
<path d="M81.9482 64.4549V55.1272L79.4394 55.1119L61.1091 66.7461L65.0866 130.488C65.0866 130.488 69.7942 151.753 76.9345 151.533C84.0748 151.312 89.5804 75.5026 81.9482 64.4549Z" fill="#2F2E41"/>
<path d="M66.9971 68.5069L61.1092 66.7461C61.1092 66.7461 56.7504 68.0198 56.7504 72.4037C56.7504 76.7875 52.9949 139.071 52.9949 139.071L64.9253 140.123L67.485 108.448L66.9971 68.5069Z" fill="#2F2E41"/>
<path d="M99.6887 61.2006L98.5151 55.1272L101.884 54.6249L114.083 59.4958C114.083 59.4958 125.061 139.622 120.182 142.058C115.303 144.493 112.008 142.606 112.008 142.606C112.008 142.606 95.9593 83.5094 98.7999 75.5211L99.6887 61.2006Z" fill="#2F2E41"/>
<path d="M105.544 60.7135L107.626 59.809C107.626 59.809 113.736 56.7862 117.203 62.8902C120.67 68.9941 132.868 137.187 132.868 137.187L122.831 139.071L115.328 114.529L105.544 60.7135Z" fill="#2F2E41"/>
<path d="M186.392 248H0.487936C0.358527 248 0.234419 247.949 0.142913 247.857C0.051407 247.766 0 247.642 0 247.513C0 247.384 0.051407 247.26 0.142913 247.169C0.234419 247.077 0.358527 247.026 0.487936 247.026H186.392C186.521 247.026 186.645 247.077 186.737 247.169C186.828 247.26 186.879 247.384 186.879 247.513C186.879 247.642 186.828 247.766 186.737 247.857C186.645 247.949 186.521 248 186.392 248Z" fill="#CACACA"/>
</g>
<defs>
<clipPath id="clip0_1_334">
<rect width="441" height="248" fill="white"/>
</clipPath>
</defs>
</svg>
